<svg width="60" height="60" viewBox="0 0 60 60" fill="none" xmlns="http://www.w3.org/2000/svg">
<g clip-path="url(#clip0_405_5)">
<path d="M48 0H12C5.37258 0 0 5.37258 0 12V48C0 54.6274 5.37258 60 12 60H48C54.6274 60 60 54.6274 60 48V12C60 5.37258 54.6274 0 48 0Z" fill="#DE5846"/>
<path d="M16.6172 16.4547V31.0002H13.1016V16.4547H16.6172Z" fill="white"/>
<path d="M19.4242 31.0002V16.4547H25.4896C26.5786 16.4547 27.49 16.6086 28.2239 16.9164C28.9626 17.2241 29.5165 17.655 29.8859 18.209C30.2599 18.763 30.4469 19.4045 30.4469 20.1337C30.4469 20.6877 30.3309 21.1825 30.0989 21.6181C29.8669 22.0489 29.5473 22.4064 29.1401 22.6905C28.7329 22.9746 28.2618 23.1735 27.7268 23.2871V23.4292C28.3139 23.4576 28.856 23.6162 29.3532 23.905C29.8551 24.1938 30.2576 24.5963 30.5606 25.1124C30.8636 25.6238 31.0151 26.2298 31.0151 26.9306C31.0151 27.7118 30.8163 28.4102 30.4185 29.0257C30.0208 29.6365 29.4455 30.1195 28.6927 30.4746C27.9398 30.825 27.026 31.0002 25.9512 31.0002H19.4242ZM22.9398 28.1664H25.1131C25.8755 28.1664 26.4365 28.022 26.7964 27.7331C27.161 27.4443 27.3433 27.0418 27.3433 26.5257C27.3433 26.1517 27.2557 25.8297 27.0805 25.5598C26.9053 25.2852 26.6567 25.0745 26.3347 24.9277C26.0128 24.7762 25.6269 24.7005 25.1771 24.7005H22.9398V28.1664ZM22.9398 22.4348H24.8859C25.2694 22.4348 25.6103 22.3709 25.9086 22.2431C26.2069 22.1152 26.4389 21.9306 26.6046 21.6891C26.7751 21.4476 26.8603 21.1564 26.8603 20.8155C26.8603 20.3278 26.6875 19.9443 26.3418 19.665C25.9962 19.3856 25.5298 19.2459 24.9427 19.2459H22.9398V22.4348Z" fill="white"/>
<path d="M42.8509 21.2061C42.7704 20.9078 42.6521 20.6451 42.4958 20.4178C42.3396 20.1858 42.1478 19.9893 41.9205 19.8283C41.6933 19.6673 41.4328 19.5466 41.1393 19.4661C40.8457 19.3809 40.5237 19.3382 40.1734 19.3382C39.4679 19.3382 38.8571 19.5087 38.341 19.8496C37.8296 20.1905 37.4343 20.6877 37.1549 21.3411C36.8755 21.9898 36.7359 22.7781 36.7359 23.7061C36.7359 24.6389 36.8708 25.4344 37.1407 26.0925C37.4106 26.7507 37.8012 27.2525 38.3126 27.5982C38.8239 27.9438 39.4442 28.1167 40.1734 28.1167C40.8173 28.1167 41.3618 28.0125 41.8069 27.8042C42.2567 27.5911 42.5976 27.2904 42.8296 26.9022C43.0616 26.5139 43.1776 26.057 43.1776 25.5314L43.831 25.6096H40.2941V23.0456H46.5654V24.9703C46.5654 26.2724 46.2884 27.3875 45.7344 28.3155C45.1852 29.2435 44.4276 29.9561 43.4617 30.4533C42.5005 30.9505 41.395 31.199 40.145 31.199C38.7576 31.199 37.5384 30.8984 36.4873 30.2971C35.4362 29.6957 34.617 28.8387 34.0299 27.726C33.4428 26.6086 33.1492 25.2828 33.1492 23.7488C33.1492 22.5556 33.3268 21.4973 33.6819 20.574C34.037 19.646 34.5318 18.86 35.1663 18.2161C35.8055 17.5721 36.5441 17.0845 37.3822 16.753C38.225 16.4216 39.1317 16.2559 40.1023 16.2559C40.9451 16.2559 41.7288 16.3766 42.4532 16.6181C43.1824 16.8596 43.8263 17.2005 44.385 17.6408C44.9485 18.0811 45.4054 18.6043 45.7558 19.2104C46.1061 19.8165 46.3239 20.4817 46.4092 21.2061H42.8509Z" fill="white"/>
<path d="M9.63867 43.0003V37.1821H13.2864V37.9378H10.5165V39.7105H13.0961V40.4633H10.5165V42.2446H13.3205V43.0003H9.63867Z" fill="#FFFBFB"/>
<path d="M15.3098 37.1821L16.7018 39.4577H16.7473L18.1393 37.1821H19.1564L17.3439 40.0912L19.1677 43.0003H18.145L16.7473 40.7559H16.7018L15.3041 43.0003H14.2814L16.1365 40.0912L14.2927 37.1821H15.3098Z" fill="#FFFBFB"/>
<path d="M20.2671 43.0003V37.1821H22.341C22.7936 37.1821 23.1686 37.2645 23.466 37.4292C23.7633 37.594 23.9859 37.8194 24.1336 38.1054C24.2813 38.3895 24.3552 38.7095 24.3552 39.0656C24.3552 39.4236 24.2804 39.7455 24.1307 40.0315C23.983 40.3156 23.7595 40.541 23.4603 40.7077C23.1629 40.8724 22.7889 40.9548 22.3381 40.9548H20.912V40.2105H22.2586C22.5446 40.2105 22.7766 40.1613 22.9546 40.0628C23.1326 39.9624 23.2633 39.826 23.3467 39.6537C23.43 39.4813 23.4717 39.2853 23.4717 39.0656C23.4717 38.8459 23.43 38.6508 23.3467 38.4804C23.2633 38.3099 23.1317 38.1764 22.9518 38.0798C22.7737 37.9832 22.5389 37.9349 22.2472 37.9349H21.1449V43.0003H20.2671Z" fill="#FFFBFB"/>
<path d="M25.6243 43.0003V37.1821H26.5021V42.2446H29.1385V43.0003H25.6243Z" fill="#FFFBFB"/>
<path d="M35.2073 40.0912C35.2073 40.7124 35.0937 41.2465 34.8664 41.6934C34.6392 42.1385 34.3276 42.4813 33.9318 42.7219C33.5378 42.9605 33.0899 43.0798 32.588 43.0798C32.0842 43.0798 31.6344 42.9605 31.2386 42.7219C30.8446 42.4813 30.534 42.1376 30.3068 41.6906C30.0795 41.2436 29.9659 40.7105 29.9659 40.0912C29.9659 39.47 30.0795 38.9368 30.3068 38.4917C30.534 38.0448 30.8446 37.702 31.2386 37.4633C31.6344 37.2228 32.0842 37.1025 32.588 37.1025C33.0899 37.1025 33.5378 37.2228 33.9318 37.4633C34.3276 37.702 34.6392 38.0448 34.8664 38.4917C35.0937 38.9368 35.2073 39.47 35.2073 40.0912ZM34.338 40.0912C34.338 39.6177 34.2613 39.219 34.1079 38.8952C33.9564 38.5694 33.7481 38.3232 33.4829 38.1565C33.2196 37.988 32.9214 37.9037 32.588 37.9037C32.2528 37.9037 31.9535 37.988 31.6903 38.1565C31.427 38.3232 31.2187 38.5694 31.0653 38.8952C30.9138 39.219 30.838 39.6177 30.838 40.0912C30.838 40.5647 30.9138 40.9643 31.0653 41.29C31.2187 41.6139 31.427 41.8601 31.6903 42.0287C31.9535 42.1953 32.2528 42.2787 32.588 42.2787C32.9214 42.2787 33.2196 42.1953 33.4829 42.0287C33.7481 41.8601 33.9564 41.6139 34.1079 41.29C34.2613 40.9643 34.338 40.5647 34.338 40.0912Z" fill="#FFFBFB"/>
<path d="M36.5418 43.0003V37.1821H38.6157C39.0664 37.1821 39.4405 37.2597 39.7378 37.415C40.0371 37.5703 40.2605 37.7853 40.4083 38.0599C40.556 38.3327 40.6299 38.648 40.6299 39.0059C40.6299 39.362 40.5551 39.6755 40.4054 39.9463C40.2577 40.2152 40.0342 40.4245 39.735 40.5741C39.4376 40.7238 39.0636 40.7986 38.6128 40.7986H37.0418V40.0429H38.5333C38.8174 40.0429 39.0484 40.0022 39.2265 39.9207C39.4064 39.8393 39.538 39.7209 39.6213 39.5656C39.7047 39.4103 39.7463 39.2238 39.7463 39.0059C39.7463 38.7863 39.7037 38.5959 39.6185 38.4349C39.5352 38.2739 39.4035 38.1508 39.2236 38.0656C39.0456 37.9785 38.8117 37.9349 38.5219 37.9349H37.4196V43.0003H36.5418ZM39.414 40.3753L40.8515 43.0003H39.8515L38.4424 40.3753H39.414Z" fill="#FFFBFB"/>
<path d="M41.938 43.0003V37.1821H45.5858V37.9378H42.8159V39.7105H45.3954V40.4633H42.8159V42.2446H45.6199V43.0003H41.938Z" fill="#FFFBFB"/>
<path d="M46.9984 43.0003V37.1821H49.0722C49.523 37.1821 49.897 37.2597 50.1944 37.415C50.4936 37.5703 50.7171 37.7853 50.8648 38.0599C51.0126 38.3327 51.0864 38.648 51.0864 39.0059C51.0864 39.362 51.0116 39.6755 50.862 39.9463C50.7143 40.2152 50.4908 40.4245 50.1915 40.5741C49.8942 40.7238 49.5201 40.7986 49.0694 40.7986H47.4984V40.0429H48.9898C49.2739 40.0429 49.505 40.0022 49.683 39.9207C49.8629 39.8393 49.9946 39.7209 50.0779 39.5656C50.1612 39.4103 50.2029 39.2238 50.2029 39.0059C50.2029 38.7863 50.1603 38.5959 50.0751 38.4349C49.9917 38.2739 49.8601 38.1508 49.6802 38.0656C49.5021 37.9785 49.2682 37.9349 48.9785 37.9349H47.8762V43.0003H46.9984ZM49.8705 40.3753L51.308 43.0003H50.308L48.8989 40.3753H49.8705Z" fill="#FFFBFB"/>
</g>
<defs>
<clipPath id="clip0_405_5">
<rect width="60" height="60" fill="white"/>
</clipPath>
</defs>
</svg>
